<svg width="12" height="16" viewBox="0 0 12 16" fill="none" xmlns="http://www.w3.org/2000/svg">
<path d="M6.33212 0C3.14744 0 0 2.1375 0 5.59688C0 7.79688 1.22918 9.04688 1.97413 9.04688C2.28142 9.04688 2.45835 8.18437 2.45835 7.94063C2.45835 7.65 1.72271 7.03125 1.72271 5.82188C1.72271 3.30938 3.62234 1.52813 6.0807 1.52813C8.19451 1.52813 9.75891 2.7375 9.75891 4.95937C9.75891 6.61875 9.09776 9.73125 6.95602 9.73125C6.18313 9.73125 5.52198 9.16875 5.52198 8.3625C5.52198 7.18125 6.34143 6.0375 6.34143 4.81875C6.34143 2.75 3.42679 3.125 3.42679 5.625C3.42679 6.15 3.49198 6.73125 3.72478 7.20937C3.29643 9.06563 2.4211 11.8312 2.4211 13.7437C2.4211 14.3344 2.50491 14.9156 2.56078 15.5063C2.66632 15.625 2.61355 15.6125 2.77496 15.5531C4.33936 13.3969 4.28349 12.975 4.9912 10.1531C5.37299 10.8844 6.36005 11.2781 7.14226 11.2781C10.4387 11.2781 11.9193 8.04375 11.9193 5.12813C11.9193 2.025 9.25607 0 6.33212 0Z" fill="black"/>
</svg>
