<svg width="16" height="13" viewBox="0 0 16 13" fill="none" xmlns="http://www.w3.org/2000/svg">
<path d="M14.2587 3.23856C14.2688 3.38069 14.2688 3.52284 14.2688 3.66497C14.2688 7.99997 10.9916 12.9949 5.00166 12.9949C3.15628 12.9949 1.44202 12.4568 0 11.5228C0.262193 11.5533 0.514267 11.5634 0.786548 11.5634C2.30921 11.5634 3.7109 11.0457 4.83023 10.1624C3.3983 10.132 2.1983 9.18781 1.78485 7.88831C1.98655 7.91875 2.18821 7.93906 2.4 7.93906C2.69242 7.93906 2.98488 7.89844 3.25713 7.82741C1.76471 7.52281 0.645348 6.20303 0.645348 4.60913V4.56853C1.07894 4.81219 1.58318 4.96447 2.1176 4.98475C1.24029 4.39591 0.665524 3.39084 0.665524 2.25378C0.665524 1.64466 0.826838 1.08628 1.10921 0.598969C2.71257 2.58881 5.12265 3.88828 7.82513 4.03044C7.77472 3.78678 7.74446 3.533 7.74446 3.27919C7.74446 1.47206 9.19656 0 11.0016 0C11.9394 0 12.7864 0.395938 13.3814 1.03553C14.1175 0.893406 14.8234 0.619281 15.4486 0.243656C15.2066 1.00509 14.6923 1.64469 14.0167 2.05075C14.6722 1.97972 15.3075 1.79694 15.8923 1.54316C15.4487 2.19287 14.894 2.77153 14.2587 3.23856Z" fill="black"/>
</svg>
